<svg width="96" height="96" viewBox="0 0 96 96" fill="none" xmlns="http://www.w3.org/2000/svg">
  <defs>
    <linearGradient id="cars_bg" x1="18" y1="18" x2="78" y2="78" gradientUnits="userSpaceOnUse">
      <stop stop-color="#60a5fa"/>
      <stop offset="1" stop-color="#2563eb"/>
    </linearGradient>
  </defs>
  <rect x="8" y="8" width="80" height="80" rx="24" fill="url(#cars_bg)"/>
  <path d="M26 56c0-4.4 1.5-8.4 4.7-12.9 3.5-4.9 6.7-7.5 10.6-8.5 3.5-.9 16.9-1.6 20.3-.2 3.7 1.5 6.9 5.5 9.7 12.2 1 2.3 1.7 4.5 2.2 6.8l1.5 6.6c1.1 5.1-2.4 9-7.2 9H29.9c-4.3 0-7.9-3.4-7.9-7.6V56z" fill="#1f2937" opacity="0.88"/>
  <path d="M32 52c0-2.2 1.8-4 4-4h24c2.2 0 4 1.8 4 4v4H32v-4z" fill="#bfdbfe" opacity="0.95"/>
  <circle cx="34" cy="64" r="7" fill="#0f172a"/>
  <circle cx="62" cy="64" r="7" fill="#0f172a"/>
  <circle cx="34" cy="64" r="3" fill="#f8fafc"/>
  <circle cx="62" cy="64" r="3" fill="#f8fafc"/>
</svg>
